<?xml version="1.0" ?><svg id="Layer_1" style="enable-background:new 0 0 64 64;" version="1.1" viewBox="0 0 64 64" xml:space="preserve" xmlns="http://www.w3.org/2000/svg" xmlns:xlink="http://www.w3.org/1999/xlink"><style type="text/css">
	.st0{fill:#A6A6A6;}
	.st1{fill:#BF7D2C;}
	.st2{fill:#313740;}
	.st3{fill:#5C6373;}
	.st4{fill:#A4A5A6;}
	.st5{fill:#7D828C;}
</style><g id="Layer_26"><rect class="st0" height="37" width="16" x="24" y="21"/><rect class="st0" height="47" width="16" x="4" y="11"/><rect class="st0" height="30" width="16" x="44" y="28"/><path class="st1" d="M35.5,29.9c0.7,0.9,0.7,2.2,0.1,3.1c-1.3,2-4,2.5-6,1.2c-0.5-0.3-0.9-0.7-1.2-1.2c-0.6-1-0.5-2.2,0.1-3.1   L32,25L35.5,29.9z"/><path class="st1" d="M15.5,19.9c0.7,0.9,0.7,2.2,0.1,3.1c-1.3,2-4,2.5-6,1.2c-0.5-0.3-0.9-0.7-1.2-1.2c-0.6-1-0.5-2.2,0.1-3.1   L12,15L15.5,19.9z"/><rect class="st2" height="4" width="60" x="2" y="58"/><rect class="st3" height="19" width="16" x="24" y="39"/><rect class="st3" height="29" width="16" x="4" y="29"/><circle class="st4" cx="30" cy="52" r="2"/><circle class="st4" cx="34" cy="45" r="2"/><path class="st1" d="M55.5,36.9c0.7,0.9,0.7,2.2,0.1,3.1c-1.3,2-4,2.5-6,1.2c-0.5-0.3-0.9-0.7-1.2-1.2c-0.6-1-0.5-2.2,0.1-3.1   L52,32L55.5,36.9z"/><rect class="st3" height="12" width="16" x="44" y="46"/><circle class="st4" cx="54" cy="52" r="2"/><circle class="st4" cx="10" cy="52" r="2"/><circle class="st4" cx="14" cy="45" r="2"/><circle class="st4" cx="11" cy="36" r="3"/><path class="st5" d="M62,14v-4h-2.3c-0.2-0.7-0.4-1.3-0.8-2l2-2l-3-3l-2,2c-0.6-0.3-1.3-0.6-2-0.8V2h-4v2.3c-0.7,0.2-1.3,0.4-2,0.8   l-2-2l-3,3l2,2c-0.3,0.6-0.6,1.3-0.8,2H42v4h2.3c0.2,0.7,0.4,1.3,0.8,2l-2,2l3,3l2-2c0.6,0.3,1.3,0.6,2,0.8V22h4v-2.3   c0.7-0.2,1.3-0.4,2-0.8l2,2l3-3l-2-2c0.3-0.6,0.6-1.3,0.8-2H62z"/><circle class="st4" cx="52" cy="12" r="4"/></g></svg>